<?xml version="1.0" encoding="UTF-8" standalone="no"?>
<svg
   xmlns:dc="http://purl.org/dc/elements/1.1/"
   xmlns:cc="http://creativecommons.org/ns#"
   xmlns:rdf="http://www.w3.org/1999/02/22-rdf-syntax-ns#"
   xmlns:svg="http://www.w3.org/2000/svg"
   xmlns="http://www.w3.org/2000/svg"
   xmlns:xlink="http://www.w3.org/1999/xlink"
   id="svg8"
   version="1.1"
   viewBox="0 0 120 35"
   height="35mm"
   width="120mm">
  <defs
     id="defs2">
    <linearGradient
       id="linearGradient856">
      <stop
         style="stop-color:#ffcc00;stop-opacity:1;"
         offset="0"
         id="stop848" />
      <stop
         id="stop850"
         offset="0.09087909"
         style="stop-color:#806600;stop-opacity:1" />
      <stop
         style="stop-color:#d4aa00;stop-opacity:1"
         offset="0.52718663"
         id="stop852" />
      <stop
         style="stop-color:#ffcc00;stop-opacity:1"
         offset="1"
         id="stop854" />
    </linearGradient>
    <linearGradient
       id="linearGradient881">
      <stop
         id="stop877"
         offset="0"
         style="stop-color:#ffcc00;stop-opacity:1;" />
      <stop
         style="stop-color:#806600;stop-opacity:1"
         offset="0.09087909"
         id="stop885" />
      <stop
         id="stop887"
         offset="0.52718663"
         style="stop-color:#ffcc00;stop-opacity:1" />
      <stop
         id="stop879"
         offset="1"
         style="stop-color:#aa8800;stop-opacity:1" />
    </linearGradient>
    <linearGradient
       gradientTransform="translate(-2.0410714,0.37797619)"
       gradientUnits="userSpaceOnUse"
       y2="1.2336307"
       x2="62.555061"
       y1="32.416668"
       x1="61.988094"
       id="linearGradient883"
       xlink:href="#linearGradient881" />
    <linearGradient
       gradientTransform="translate(-0.28042291,262.9583)"
       gradientUnits="userSpaceOnUse"
       y2="1.2336307"
       x2="62.555061"
       y1="32.416668"
       x1="61.988094"
       id="linearGradient883-7"
       xlink:href="#linearGradient856" />
  </defs>
  <metadata
     id="metadata5">
    <rdf:RDF>
      <cc:Work
         rdf:about="">
        <dc:format>image/svg+xml</dc:format>
        <dc:type
           rdf:resource="http://purl.org/dc/dcmitype/StillImage" />
        <dc:title></dc:title>
      </cc:Work>
    </rdf:RDF>
  </metadata>
  <g
     transform="translate(0,-262)"
     id="layer1">
    <g
       id="g866">
      <path
         id="path21"
         d="m 30.720905,292.97402 c -3.016716,-3.08619 -4.302435,-5.74791 -4.799994,-9.93707 l -0.328885,-2.769 -1.062853,2.41736 c -0.868622,1.9756 -1.380275,2.73164 -2.79981,4.13715 -2.021544,2.00157 -5.1864,3.96938 -7.96398,4.95176 -1.546548,0.54698 -2.604807,0.71722 -5.0515494,0.81263 -3.553947,0.13858 -4.326332,0.0115 -4.524049,-0.74462 -0.141182,-0.53988 -0.0024,-0.73805 1.004617,-1.43555 0.500616,-0.34671 0.539306,-0.77807 0.717063,-7.99463 0.103347,-4.19547 0.121569,-8.35052 0.0405,-9.23345 -0.135138,-1.47179 -0.211293,-1.62944 -0.915503,-1.89525 -1.248106,-0.47111 -1.009608,-1.24631 0.724786,-2.35578 2.67447,-1.71084 5.3687394,-2.53507 8.7645244,-2.68124 4.633169,-0.19942 8.00177,0.66271 10.220569,2.61577 1.210304,1.06535 1.478997,1.71838 0.932074,2.26531 -0.204251,0.20425 -0.204671,0.57788 -0.0016,1.30968 0.156366,0.56315 0.284967,1.35134 0.285777,1.75152 7.94e-4,0.40018 0.120539,0.7276 0.26606,0.7276 0.14552,0 0.264583,-0.1283 0.264583,-0.2851 0,-0.15681 0.714375,-1.5073 1.5875,-3.0011 0.873125,-1.49379 1.5875,-2.79719 1.5875,-2.89644 0,-0.0992 -0.297656,-0.29363 -0.661458,-0.43194 -0.762225,-0.2898 -0.925904,-1.42941 -0.242943,-1.69149 0.5462,-0.20959 15.020936,-0.20959 15.567137,0 0.607068,0.23296 0.512971,1.13333 -0.176798,1.69169 -0.566618,0.45867 -0.603731,0.72215 -0.769961,5.46637 -0.09606,2.74146 -0.185354,7.55563 -0.198438,10.69815 -0.02236,5.36945 0.0077,5.74216 0.4986,6.18643 0.478851,0.43336 0.57486,0.43838 1.152009,0.0602 l 0.629621,-0.41254 0.130836,-7.75826 c 0.07196,-4.26705 0.0744,-8.51104 0.0054,-9.43108 -0.109466,-1.46016 -0.205277,-1.70318 -0.753678,-1.91168 -1.488425,-0.5659 -0.364737,-1.91765 2.841252,-3.41791 2.327378,-1.08911 4.844587,-1.58642 8.057975,-1.59196 3.726993,-0.006 4.947893,0.40636 6.827133,2.30826 2.07792,2.10299 2.01874,2.32672 -1.28901,4.8733 -2.10315,1.61918 -3.30855,2.31215 -5.87684,3.37854 -1.776933,0.73785 -3.473574,1.34155 -3.770193,1.34155 -0.521348,0 -0.422305,0.15004 -0.539303,4.45911 l -0.16356,6.02397 c -0.155734,1.48998 -0.130622,1.5825 0.524782,1.93326 0.914448,0.48939 1.171329,1.3281 0.546675,1.78486 -0.545823,0.39911 -4.808424,0.46896 -6.668284,0.10926 -0.627764,-0.12141 -1.193393,-0.11628 -1.272384,0.0115 -0.07822,0.12656 -1.78748,0.2301 -3.798364,0.2301 -2.873433,0 -3.724413,-0.0822 -3.974994,-0.38417 -0.392906,-0.47343 -0.114655,-1.46791 0.410715,-1.46791 0.743667,0 0.952596,-1.51122 1.124839,-8.13623 l 0.173699,-6.68101 -0.718121,2.9e-4 c -0.394965,1.6e-4 -1.908871,0.1357 -3.364233,0.30119 l -2.646114,0.30089 -0.472226,1.35275 c -0.364934,1.04542 -0.470646,2.16427 -0.465283,4.92463 0.0066,3.39669 0.04868,3.67625 0.857994,5.69989 0.468082,1.17041 1.186137,2.65869 1.595678,3.30729 0.409543,0.64861 0.822058,1.3842 0.916702,1.63465 0.179763,0.4757 -0.405805,1.26442 -0.938742,1.26442 -0.165965,0 -1.087334,-0.80367 -2.047486,-1.78593 z m -17.428624,-3.93571 c 5.510944,-2.89592 8.436807,-9.89509 6.583086,-15.74788 -0.891972,-2.81623 -1.935383,-3.66775 -4.487234,-3.66199 -2.09877,0.005 -2.911681,0.37371 -3.493624,1.58569 -0.382254,0.79611 -0.455475,2.15955 -0.529167,9.8537 -0.04704,4.91136 -0.0434,8.92972 0.0081,8.92969 0.05148,-3e-5 0.914966,-0.43168 1.918862,-0.95921 z m 40.077946,-14.17252 c 1.095682,-0.72544 2.344645,-1.85096 3.007794,-2.71052 1.090916,-1.41403 1.11811,-1.49428 0.714914,-2.10964 -0.490325,-0.74832 -1.679281,-1.07392 -3.009979,-0.82428 -2.158537,0.40494 -2.983344,1.80411 -2.983344,5.06081 0,1.10058 0.0893,1.96127 0.198437,1.91263 0.109141,-0.0486 1.04162,-0.64669 2.072178,-1.329 z m -15.235199,-3.63528 v -1.56903 l -0.826212,0.23696 c -1.31345,0.37669 -3.671705,2.10186 -3.671705,2.68602 0,0.1183 1.012031,0.21508 2.248958,0.21508 h 2.248959 z m 55.452704,22.32352 c -0.37179,-0.37179 -0.32501,-0.58214 0.48876,-2.19809 1.34536,-2.67152 1.83172,-4.59506 1.85211,-7.32502 0.0168,-2.2538 -0.0408,-2.51352 -0.98041,-4.4149 -0.64094,-1.29704 -1.55867,-2.58936 -2.5637,-3.61012 -1.47405,-1.4971 -3.97307,-3.19837 -4.70623,-3.20387 -0.2579,-0.002 -0.33073,1.90361 -0.33073,8.65268 v 8.65516 l 0.7276,0.58746 c 0.60035,0.48472 0.67643,0.67155 0.435,1.06827 -0.24181,0.39736 -0.7076,0.49396 -2.68353,0.55652 -1.80117,0.057 -2.48438,-0.0177 -2.7698,-0.30319 -0.32879,-0.32879 -0.42031,-0.31256 -0.69215,0.12274 -0.28226,0.45196 -0.66481,0.50162 -3.86401,0.50162 -2.88392,0 -3.62927,-0.0785 -3.96894,-0.4182 -0.46373,-0.46373 -0.33764,-0.80191 0.5664,-1.51923 0.60646,-0.48119 0.60776,-0.49717 0.60776,-7.47448 v -6.99225 h -2.64583 -2.64584 l -0.002,6.94531 -0.002,6.94531 0.86228,0.71404 c 0.71802,0.59458 0.81328,0.79378 0.56938,1.19063 -0.25337,0.41225 -0.75339,0.48688 -3.70417,0.55291 -1.87619,0.042 -3.67915,0.01 -4.00657,-0.0712 -0.77937,-0.19312 -0.82791,-1.35087 -0.0668,-1.59245 0.2907,-0.0923 0.61812,-0.48724 0.7276,-0.87772 0.10948,-0.39049 0.19905,-5.33416 0.19905,-10.98595 v -10.27598 l -0.59531,-0.48205 c -0.78003,-0.63164 -0.78003,-1.53201 0,-1.7253 0.32742,-0.0811 2.13038,-0.11317 4.00657,-0.0712 2.96347,0.0663 3.44971,0.13945 3.70417,0.55715 0.24269,0.39838 0.16164,0.58673 -0.47278,1.09863 -0.69492,0.56073 -0.7776,0.80359 -0.89468,2.62804 l -0.12902,2.01022 h 2.68063 2.68062 v -1.25852 c 0,-1.63055 -0.38222,-2.93088 -1.04228,-3.54582 -0.61699,-0.57481 -0.45974,-1.22684 0.34386,-1.42584 0.31138,-0.0771 2.1012,-0.10584 3.97739,-0.0639 2.96347,0.0663 3.44971,0.13945 3.70417,0.55715 0.24249,0.39805 0.16258,0.58599 -0.46426,1.09184 -0.51315,0.41411 -0.82919,0.98393 -0.98066,1.76814 -0.12293,0.63642 -0.22869,5.51897 -0.23503,10.85013 l -0.0115,9.69301 0.66419,0.43519 c 0.69267,0.45386 0.70273,0.45065 1.85853,-0.59167 0.31267,-0.28197 0.38785,-1.25479 0.38851,-5.02708 5.3e-4,-2.5726 0.0787,-6.73129 0.17394,-9.24152 l 0.17312,-4.56406 h -0.65253 c -0.3589,0 -0.87894,-0.16555 -1.15566,-0.36789 -0.42014,-0.30722 -0.45464,-0.47428 -0.20922,-1.01292 0.48136,-1.05646 2.93387,-3.85661 3.54875,-4.05176 1.17118,-0.37172 6.4646,2.69684 9.29943,5.39082 l 0.99219,0.94289 v -1.59508 c 0,-1.35931 -0.0978,-1.68692 -0.66146,-2.21648 -0.72044,-0.67682 -0.84015,-1.30298 -0.34395,-1.79917 0.48148,-0.48148 4.819188,-0.42617 5.228198,0.0667 0.44916,0.5412 0.24292,1.29022 -0.43773,1.5898 -0.317613,0.13979 -0.642718,0.49697 -0.722448,0.79375 -0.0797,0.29677 -0.14659,3.82452 -0.14858,7.83944 -0.003,6.36116 -0.0699,7.55902 -0.51904,9.31516 -0.62571,2.44653 -1.65087,4.60215 -2.86103,6.01595 -1.20707,1.41019 -1.76264,1.69317 -2.28959,1.16622 z m 19.292098,-0.48879 c -7.53112,-1.86042 -12.911553,-9.31474 -12.51595,-17.34022 0.0953,-1.93354 0.26852,-2.61832 1.18669,-4.69123 1.07293,-2.42234 1.07389,-2.42751 0.4791,-2.57679 -0.73858,-0.18537 -1.00986,-1.08984 -0.48447,-1.61524 0.32712,-0.32712 1.58577,-0.39289 7.58322,-0.39627 3.95505,-0.002 7.353,-0.1067 7.55101,-0.23215 0.70823,-0.44873 1.35978,-0.0208 1.35978,0.89297 0,0.90229 -1.58007,4.34435 -2.24917,4.89966 -0.56453,0.46852 -1.16023,0.1367 -1.58662,-0.8838 -0.49648,-1.18825 -1.44135,-1.76221 -2.90102,-1.76221 -0.99355,0 -1.36943,0.15457 -2.19212,0.90141 -0.54612,0.49577 -1.20804,1.26968 -1.47093,1.71979 l -0.47798,0.81838 h 2.94277 c 4.26016,0 4.69765,0.38803 3.01774,2.67653 -0.99265,1.35227 -1.68204,1.60983 -2.39651,0.89535 -0.4276,-0.4276 -1.42082,-0.49508 -3.36486,-0.22862 l -1.22755,0.16825 v 1.76054 c 0,5.43758 3.14242,10.56446 7.81836,12.75568 2.29693,1.07637 2.73563,1.54298 2.07337,2.20524 -0.47451,0.47451 -1.32085,0.48332 -3.14486,0.0327 z"
         style="fill:#000000;stroke-width:0.26458335" />
      <path
         id="path21-4-9"
         d="m 29.063636,291.77474 c -3.016714,-3.08619 -4.302433,-5.74792 -4.799992,-9.93708 l -0.328885,-2.769 -1.062853,2.41736 c -0.868623,1.9756 -1.380276,2.73165 -2.799811,4.13716 -2.021545,2.00156 -5.1864,3.96937 -7.96398,4.95175 -1.546547,0.54698 -2.6048053,0.71722 -5.051548,0.81263 -3.553947,0.13858 -4.326332,0.0115 -4.524049,-0.74462 -0.141182,-0.53988 -0.0024,-0.73804 1.004617,-1.43555 0.500616,-0.34671 0.539306,-0.77807 0.717063,-7.99462 0.103347,-4.19548 0.121569,-8.35053 0.0405,-9.23346 -0.135138,-1.47178 -0.211293,-1.62943 -0.915503,-1.89524 -1.248106,-0.47111 -1.009608,-1.24631 0.724786,-2.35579 2.67447,-1.71084 5.3687397,-2.53506 8.764523,-2.68123 4.633169,-0.19943 8.001769,0.6627 10.220569,2.61577 1.210305,1.06535 1.478997,1.71838 0.932075,2.2653 -0.204251,0.20425 -0.204671,0.57788 -0.0016,1.30969 0.156366,0.56315 0.284967,1.35133 0.285777,1.75151 7.94e-4,0.40018 0.120539,0.72761 0.26606,0.72761 0.14552,0 0.264583,-0.1283 0.264583,-0.28511 0,-0.15681 0.714375,-1.5073 1.5875,-3.00109 0.873125,-1.49379 1.5875,-2.79719 1.5875,-2.89644 0,-0.0992 -0.297656,-0.29363 -0.661458,-0.43195 -0.762213,-0.28979 -0.925892,-1.42941 -0.242931,-1.69148 0.5462,-0.2096 15.02094,-0.2096 15.567138,0 0.607067,0.23295 0.512973,1.13333 -0.176795,1.69169 -0.566618,0.45867 -0.603731,0.72215 -0.769961,5.46637 -0.09606,2.74145 -0.185354,7.55562 -0.19844,10.69814 -0.02236,5.36945 0.0077,5.74217 0.498602,6.18644 0.478848,0.43335 0.57486,0.43837 1.152008,0.0602 l 0.629621,-0.41255 0.130834,-7.75826 c 0.07196,-4.26705 0.0744,-8.51103 0.0054,-9.43108 -0.109457,-1.46015 -0.205268,-1.70318 -0.75367,-1.91168 -1.488423,-0.5659 -0.364736,-1.91764 2.841252,-3.41791 2.327379,-1.08911 4.844587,-1.58642 8.057976,-1.59196 3.726989,-0.006 4.947893,0.40636 6.827133,2.30827 2.077919,2.10299 2.01874,2.32671 -1.28901,4.8733 -2.103152,1.61917 -3.308554,2.31214 -5.87684,3.37853 -1.776937,0.73786 -3.473575,1.34156 -3.770194,1.34156 -0.521348,0 -0.422304,0.15003 -0.539303,4.4591 l -0.16356,6.02397 c -0.155733,1.48999 -0.130622,1.5825 0.52478,1.93326 0.914451,0.4894 1.171329,1.3281 0.546674,1.78486 -0.545822,0.39911 -4.808421,0.46897 -6.668283,0.10927 -0.627761,-0.12141 -1.193389,-0.11629 -1.272383,0.0115 -0.07822,0.12655 -1.78748,0.2301 -3.798361,0.2301 -2.873433,0 -3.724415,-0.0823 -3.974994,-0.38418 -0.392909,-0.47342 -0.11466,-1.46791 0.41071,-1.46791 0.743667,0 0.952598,-1.51122 1.124839,-8.13622 l 0.173699,-6.68101 -0.718119,2.9e-4 c -0.394962,1.6e-4 -1.908868,0.13569 -3.36423,0.30118 l -2.646119,0.3009 -0.472223,1.35275 c -0.364936,1.04541 -0.470647,2.16427 -0.465285,4.92463 0.0066,3.39668 0.04868,3.67625 0.857998,5.69989 0.468077,1.17041 1.186135,2.65869 1.595673,3.30729 0.409546,0.6486 0.822063,1.38419 0.916702,1.63464 0.179763,0.4757 -0.405802,1.26443 -0.938739,1.26443 -0.165968,0 -1.087337,-0.80368 -2.047486,-1.78594 z m -17.428623,-3.93571 c 5.510943,-2.89592 8.436806,-9.89509 6.583086,-15.74788 -0.891972,-2.81624 -1.935384,-3.66775 -4.487235,-3.66199 -2.098769,0.005 -2.91168,0.3737 -3.493622,1.58569 -0.3822536,0.79611 -0.4554746,2.15955 -0.5291666,9.8537 -0.04704,4.91136 -0.0434,8.92972 0.0081,8.92968 0.05148,-3e-5 0.9149656,-0.43167 1.9188606,-0.9592 z M 51.712961,273.6665 c 1.095682,-0.72543 2.344645,-1.85095 3.007794,-2.71051 1.090914,-1.41403 1.118108,-1.49428 0.714912,-2.10964 -0.490323,-0.74833 -1.679279,-1.07393 -3.009977,-0.82429 -2.158537,0.40495 -2.983346,1.80411 -2.983346,5.06081 0,1.10059 0.0893,1.96127 0.198435,1.91263 0.109143,-0.0486 1.041622,-0.64668 2.072182,-1.329 z m -15.235202,-3.63527 v -1.56903 l -0.826209,0.23695 c -1.31345,0.3767 -3.671705,2.10187 -3.671705,2.68603 0,0.11829 1.012031,0.21508 2.248955,0.21508 h 2.248959 z m 55.45271,22.32351 c -0.37179,-0.37179 -0.325012,-0.58214 0.488759,-2.19809 1.345362,-2.67152 1.831721,-4.59505 1.85211,-7.32502 0.0168,-2.25379 -0.0408,-2.51352 -0.980411,-4.41489 -0.64094,-1.29704 -1.558668,-2.58936 -2.563698,-3.61012 -1.47405,-1.49711 -3.973071,-3.19838 -4.706232,-3.20388 -0.257899,-0.002 -0.330729,1.90362 -0.330729,8.65268 v 8.65517 l 0.727599,0.58746 c 0.60035,0.48471 0.676431,0.67155 0.435002,1.06827 -0.241811,0.39736 -0.707602,0.49395 -2.683532,0.55651 -1.801169,0.057 -2.484379,-0.0178 -2.769798,-0.30318 -0.32879,-0.32879 -0.420312,-0.31256 -0.69215,0.12274 -0.28226,0.45196 -0.664811,0.50162 -3.864015,0.50162 -2.883918,0 -3.629268,-0.0785 -3.968938,-0.41821 -0.463732,-0.46373 -0.33764,-0.80191 0.566399,-1.51923 0.60646,-0.48119 0.607761,-0.49716 0.607761,-7.47447 v -6.99226 h -2.64583 -2.645844 l -0.0021,6.94531 -0.0021,6.94532 0.86228,0.71404 c 0.718018,0.59458 0.813279,0.79377 0.569378,1.19062 -0.25337,0.41225 -0.753388,0.48689 -3.704169,0.55292 -1.87619,0.042 -3.67915,0.01 -4.00657,-0.0712 -0.77937,-0.19313 -0.82791,-1.35087 -0.0668,-1.59245 0.2907,-0.0923 0.61812,-0.48724 0.727599,-0.87773 0.109479,-0.39048 0.199051,-5.33416 0.199051,-10.98595 v -10.27597 l -0.595374,-0.48206 c -0.780032,-0.63163 -0.780032,-1.532 0,-1.72529 0.327419,-0.0811 2.13038,-0.11317 4.006569,-0.0712 2.963468,0.0663 3.449706,0.13944 3.704169,0.55714 0.24269,0.39839 0.16164,0.58674 -0.472781,1.09864 -0.694917,0.56072 -0.7776,0.80359 -0.894678,2.62804 l -0.129021,2.01022 h 2.680628 2.680621 v -1.25852 c 0,-1.63056 -0.38222,-2.93088 -1.042278,-3.54582 -0.61699,-0.57481 -0.45974,-1.22684 0.34386,-1.42584 0.31138,-0.0771 2.101199,-0.10584 3.977389,-0.0639 2.963468,0.0663 3.449709,0.13945 3.704169,0.55714 0.242491,0.39806 0.162579,0.58599 -0.464259,1.09184 -0.513151,0.41412 -0.829191,0.98394 -0.980662,1.76815 -0.122928,0.63641 -0.22869,5.51897 -0.23503,10.85012 l -0.01151,9.69301 0.664189,0.43519 c 0.692671,0.45386 0.702731,0.45066 1.858531,-0.59167 0.312669,-0.28196 0.38785,-1.25479 0.388509,-5.02708 5.29e-4,-2.5726 0.0787,-6.73128 0.17394,-9.24152 l 0.173119,-4.56406 h -0.652528 c -0.3589,0 -0.878941,-0.16555 -1.155661,-0.36789 -0.420139,-0.30721 -0.454639,-0.47428 -0.209219,-1.01292 0.481655,-1.05646 2.934163,-3.8566 3.549044,-4.05176 1.171181,-0.37172 6.464599,2.69685 9.29943,5.39082 l 0.99219,0.94289 v -1.59507 c 0,-1.35932 -0.0978,-1.68692 -0.661459,-2.21649 -0.720441,-0.67682 -0.84015,-1.30297 -0.34395,-1.79916 0.481478,-0.48149 4.819178,-0.42618 5.228195,0.0667 0.449157,0.5412 0.242927,1.29021 -0.437737,1.58979 -0.31761,0.13979 -0.642709,0.49698 -0.722439,0.79375 -0.0797,0.29677 -0.14659,3.82452 -0.148579,7.83945 -0.003,6.36116 -0.0699,7.55901 -0.519041,9.31515 -0.625711,2.44653 -1.650871,4.60216 -2.86103,6.01596 -1.207069,1.41018 -1.762641,1.69317 -2.28959,1.16622 z m 19.292071,-0.48879 c -7.53112,-1.86042 -12.911534,-9.31473 -12.515927,-17.34022 0.0953,-1.93354 0.26852,-2.61831 1.186684,-4.69122 1.072913,-2.42234 1.073873,-2.42751 0.479093,-2.5768 -0.73857,-0.18537 -1.00985,-1.08984 -0.484463,-1.61523 0.327123,-0.32712 1.585753,-0.39289 7.583203,-0.39627 3.95505,-0.002 7.353,-0.1067 7.55101,-0.23216 0.70823,-0.44872 1.35978,-0.0208 1.35978,0.89298 0,0.90229 -1.58007,4.34435 -2.24917,4.89966 -0.56453,0.46851 -1.16023,0.13669 -1.58662,-0.8838 -0.49648,-1.18826 -1.44135,-1.76221 -2.90102,-1.76221 -0.99355,0 -1.36943,0.15456 -2.19212,0.9014 -0.54612,0.49578 -1.20804,1.26968 -1.47093,1.71979 l -0.47798,0.81839 h 2.94277 c 4.26016,0 4.69765,0.38803 3.01774,2.67653 -0.99265,1.35227 -1.68204,1.60982 -2.39651,0.89534 -0.4276,-0.42759 -1.42082,-0.49508 -3.36486,-0.22862 l -1.22755,0.16826 v 1.76053 c 0,5.43759 3.14242,10.56446 7.81836,12.75568 2.29693,1.07638 2.73563,1.54298 2.07337,2.20525 -0.47451,0.4745 -1.32085,0.48331 -3.14486,0.0327 z"
         style="fill:#d4aa00;fill-opacity:1;stroke-width:0.26458341" />
    </g>
  </g>
</svg>
