<?xml version="1.0" encoding="UTF-8" standalone="no"?>
<svg
   xmlns:dc="http://purl.org/dc/elements/1.1/"
   xmlns:cc="http://creativecommons.org/ns#"
   xmlns:rdf="http://www.w3.org/1999/02/22-rdf-syntax-ns#"
   xmlns:svg="http://www.w3.org/2000/svg"
   xmlns="http://www.w3.org/2000/svg"
   width="270mm"
   height="150mm"
   viewBox="0 0 270 150"
   version="1.1"
   id="svg8">
  <defs
     id="defs2" />
  <metadata
     id="metadata5">
    <rdf:RDF>
      <cc:Work
         rdf:about="">
        <dc:format>image/svg+xml</dc:format>
        <dc:type
           rdf:resource="http://purl.org/dc/dcmitype/StillImage" />
        <dc:title></dc:title>
      </cc:Work>
    </rdf:RDF>
  </metadata>
  <path
     id="path54"
     d="m 100.71817,106.73344 c -0.10212,-0.10212 -0.18568,-0.30601 -0.18568,-0.45307 0,-0.14707 1.76857,-2.06199 3.93016,-4.25539 8.01503,-8.132957 11.20714,-12.797997 17.39339,-25.419239 5.20719,-10.623748 6.44887,-14.45551 5.1871,-16.007291 -0.48564,-0.597279 -0.71322,-0.657696 -2.34553,-0.622695 -3.22136,0.06908 -6.87129,1.818196 -10.40377,4.985684 -2.98894,2.68011 -3.70881,2.3303 -3.70527,-1.800526 0.004,-4.821174 2.22267,-10.508589 6.31482,-16.188505 0.73389,-1.018646 2.3909,-3.193785 3.68225,-4.833644 3.87591,-4.921933 5.37639,-8.048104 4.57846,-9.53902 -0.74308,-1.388462 -4.22518,-1.263758 -7.43359,0.266218 -1.26336,0.602444 -2.29264,1.407494 -3.8781,3.033215 -2.44374,2.505811 -3.2368,2.857111 -4.39436,1.946582 -0.61146,-0.480978 -0.72343,-0.768715 -0.72343,-1.859105 0,-3.038354 3.23333,-10.807286 8.53168,-20.499663 1.90567,-3.486083 2.42059,-4.101041 3.4339,-4.101041 1.16872,0 2.12967,0.625503 3.74807,2.43973 1.92063,2.153025 1.92452,2.590547 0.0428,4.808696 -4.00891,4.725645 -8.41943,10.439478 -9.04463,11.717335 -0.98552,2.014309 -0.59636,2.193581 1.61249,0.742816 2.37217,-1.558044 3.87807,-1.982857 7.0035,-1.975683 2.97196,0.0068 4.18723,0.439096 5.52825,1.966422 1.03555,1.17943 1.36907,1.964276 1.36907,3.22176 0,1.220372 -0.11808,1.420053 -3.57806,6.050799 -5.35377,7.165332 -8.79439,12.645691 -9.75435,15.537129 -0.68769,2.071386 -0.11436,2.489785 2.25273,1.643976 1.6646,-0.594797 5.36678,-0.78404 7.49232,-0.382985 2.58401,0.487569 4.01382,1.53357 5.14958,3.767275 0.82697,1.626402 0.90492,1.980243 0.9034,4.101042 -0.002,2.743875 -0.53068,4.924602 -1.90984,7.877313 -1.62058,3.469573 -9.39788,15.751069 -13.05377,20.613817 -2.17667,2.895206 -7.28337,7.919498 -9.79066,9.632658 -3.37404,2.30539 -7.41234,4.12596 -7.95292,3.58539 z m 72.49494,-4.76357 c -0.10154,-0.10154 -0.18462,-1.50898 -0.18462,-3.127638 0,-5.310142 -1.80614,-9.73202 -4.55591,-11.153984 -1.09802,-0.567804 -0.7064,-0.901546 2.63257,-2.243492 1.54793,-0.622123 3.03065,-1.347359 3.29492,-1.611635 0.63579,-0.635791 0.6083,-1.288098 -0.20226,-4.799097 -1.06739,-4.623449 -0.86513,-10.198283 0.54561,-15.039131 0.19776,-0.678572 0.28967,-1.30365 0.20426,-1.389063 -0.0854,-0.08541 -0.96025,-0.155297 -1.94408,-0.155297 -1.61028,0 -1.84267,0.0685 -2.32876,0.686469 -0.29698,0.377555 -0.67685,1.382205 -0.84415,2.232552 -0.55027,2.796961 -1.91635,3.414654 -3.48886,1.577533 -0.49888,-0.582832 -1.5667,-2.339004 -2.37295,-3.902604 -2.58817,-5.01945 -3.51649,-8.60997 -3.32978,-12.878853 0.10536,-2.4091 0.59125,-3.85468 1.29563,-3.85468 1.04561,0 5.16056,7.858969 6.09556,11.641666 0.30574,1.236927 0.64877,2.348386 0.76227,2.469912 0.11351,0.121523 0.59262,0.02122 1.06469,-0.222895 0.47207,-0.244118 2.39842,-0.723678 4.28077,-1.065694 2.28579,-0.415314 3.79027,-0.837923 4.52991,-1.272443 1.80525,-1.060547 5.20342,-4.873424 9.14075,-10.256244 0.56803,-0.776568 0.1515,-1.615631 -1.28158,-2.581601 -1.05312,-0.709856 -1.58382,-0.890426 -2.61698,-0.890426 -1.70695,0 -2.64657,0.318447 -6.97012,2.362242 -1.99602,0.943544 -4.09922,1.778585 -4.67377,1.855648 -1.36379,0.182922 -3.56593,-0.355751 -4.16628,-1.019128 -0.60211,-0.665324 -0.28251,-0.894204 1.55202,-1.111477 1.60507,-0.190098 3.58208,-1.12898 7.54778,-3.584448 3.50116,-2.167832 4.75852,-2.512399 8.64088,-2.36795 2.41856,0.08999 2.85668,0.189807 4.72062,1.075553 3.13975,1.492004 6.01516,4.497914 6.01516,6.288159 0,1.133014 -0.79013,2.334268 -3.39494,5.161417 -1.96768,2.13564 -3.00074,3.522369 -3.88065,5.209191 -2.12167,4.067352 -3.30417,4.712684 -8.63544,4.712684 h -3.11499 l -0.17684,0.942613 c -0.23755,1.266293 0.0294,3.851039 0.9546,9.243846 1.11879,6.520992 1.39833,9.818679 1.42419,16.801041 0.0262,7.090093 -0.12718,7.964734 -1.66179,9.472811 -1.47911,1.453543 -4.4921,3.179783 -4.87744,2.794443 z M 87.153647,95.914565 c -1.16747,-1.99213 -2.04602,-4.844569 -2.07397,-6.733683 -0.0295,-1.995538 0.31177,-2.262391 1.53717,-1.201899 0.42282,0.365916 0.86703,0.6653 0.98715,0.6653 0.45017,0 0.51643,-1.326126 0.24526,-4.90928 -0.15357,-2.029323 -0.27971,-4.741397 -0.2803,-6.02683 -5.3e-4,-1.350476 -0.10648,-2.29992 -0.25074,-2.248959 -0.13732,0.04851 -2.48881,2.182657 -5.22553,4.742553 -7.245326,6.777213 -8.267276,7.648766 -8.968666,7.648766 -1.03591,0 -1.22431,-0.792559 -1.12321,-4.725151 l 0.0928,-3.609224 7.261116,-11.1125 c 5.53582,-8.472088 7.28652,-11.348252 7.36805,-12.104688 0.0661,-0.613571 -0.005,-0.992187 -0.18604,-0.992187 -0.16114,0 -4.11222,3.280783 -8.78018,7.290628 -4.667966,4.009848 -8.783096,7.403129 -9.144736,7.540625 -0.86507,0.328898 -6.74745,0.322691 -7.61733,-0.008 -0.37327,-0.14192 -0.67868,-0.385712 -0.67868,-0.541766 0,-0.820526 8.64414,-7.944425 20.360266,-16.779502 4.49838,-3.392213 5.86357,-4.558218 5.98886,-5.115063 0.66444,-2.953274 1.11436,-3.60036 2.40091,-3.453072 0.53831,0.06163 0.8634,0.321802 1.14788,0.91865 0.3372,0.707472 0.58118,0.857406 1.6227,0.997193 1.483408,0.199099 4.56504,1.711394 4.67197,2.292742 0.083,0.451506 -0.539857,1.377891 -3.71498,5.524963 l -2.05053,2.678215 v 6.074087 c 0,3.340754 0.0804,6.074093 0.17861,6.074093 0.0982,0 1.70356,-1.033881 3.567409,-2.297512 5.049891,-3.42365 4.910861,-2.64727 -0.426707,2.383025 l -3.319312,3.128225 -0.002,11.026984 c -0.002,11.353969 -0.0988,12.582514 -1.07403,13.557707 -0.88968,0.88968 -1.72445,0.662401 -2.51373,-0.684397 z m -5.06273,-21.456452 c 0.46572,-0.23531 1.82986,-1.025813 3.03143,-1.75668 l 2.18467,-1.328843 -0.17078,-4.130299 c -0.0939,-2.271665 -0.19961,-4.16568 -0.23483,-4.208923 -0.27471,-0.337283 -5.94811,10.458569 -5.94811,11.318607 0,0.644504 0.0609,0.650182 1.13762,0.106138 z M 150.2102,92.306188 c -0.49664,-0.181436 -1.27949,-1.107813 -2.48118,-2.9361 -3.31134,-5.037992 -3.5003,-6.328151 -1.32098,-9.019455 1.24227,-1.534118 1.65906,-2.44751 2.01581,-4.417587 0.50879,-2.809735 0.86116,-2.88427 2.38787,-0.505105 1.95189,3.041748 4.86056,3.276359 8.39172,0.67687 1.80364,-1.327764 2.71255,-1.712016 2.71255,-1.14676 0,0.20479 -0.99337,1.909453 -2.2075,3.788143 -2.97191,4.598625 -5.60159,9.377283 -6.27675,11.40614 -0.75263,2.261671 -1.52072,2.775196 -3.22154,2.153854 z m 52.31934,-5.011026 c -2.9893,-1.025628 -3.30655,-1.081564 -5.42396,-0.956323 -1.68451,0.09963 -2.747,0.336947 -4.23334,0.945541 -1.39377,0.570693 -2.43252,0.815232 -3.49011,0.821629 -2.63447,0.01593 -2.33317,-0.427053 1.96669,-2.891565 2.45516,-1.407205 3.09369,-1.655908 4.6891,-1.826379 1.0158,-0.108537 1.924,-0.274434 2.01823,-0.368657 0.41423,-0.414229 -0.24135,-1.488041 -1.40601,-2.30297 -0.69539,-0.486582 -2.27639,-1.922471 -3.51331,-3.19087 -2.04237,-2.094331 -2.36441,-2.322978 -3.50573,-2.489108 -0.69123,-0.100613 -1.25677,-0.300775 -1.25677,-0.444806 0,-0.144029 0.44648,-0.456063 0.99218,-0.693405 0.7332,-0.318886 1.8555,-0.436226 4.29948,-0.449519 2.76151,-0.01503 3.63477,0.08432 5.29167,0.601938 3.71706,1.161227 8.61717,4.178271 10.2385,6.303952 1.46746,1.923936 1.01453,4.907211 -1.04863,6.906903 -1.31029,1.269987 -2.00247,1.27413 -5.61799,0.03364 z M 74.047111,47.560677 c -2.31541,-1.551352 -3.4318,-4.696936 -2.92498,-8.241564 0.43018,-3.008665 2.12801,-6.501913 3.16014,-6.501913 0.30263,0 0.35893,0.236892 0.24975,1.050863 -0.1691,1.260796 0.16318,2.910835 0.647456,3.215135 0.51296,0.322324 1.19171,0.04543 3.26266,-1.331007 1.21281,-0.806075 2.58604,-1.438026 3.96875,-1.826395 3.40498,-0.956368 3.76415,-1.216131 5.27219,-3.812935 0.73701,-1.269106 1.63767,-2.638324 2.00147,-3.042709 l 0.66146,-0.735244 0.0791,1.666927 c 0.0893,1.880805 0.41152,2.202432 1.49527,1.492338 0.3801,-0.249051 0.74138,-0.402522 0.80286,-0.341046 0.0615,0.06147 -0.37273,0.849032 -0.9649,1.750127 -0.90697,1.380112 -1.11609,1.96243 -1.32674,3.694379 -0.49715,4.087485 -0.79674,5.604331 -1.16771,5.912211 -0.53066,0.440404 -2.20596,-0.761559 -3.89966,-2.797853 -1.58403,-1.904441 -1.98214,-2.229527 -2.74383,-2.240544 -0.9096,-0.01315 -1.82022,1.449059 -3.14366,5.047885 -1.59351,4.333192 -2.62007,6.439421 -3.46089,7.10081 -0.85787,0.674794 -0.87357,0.67432 -1.968746,-0.05946 z m 75.962629,-4.16682 c -5.65645,-0.780579 -8.62507,-2.048729 -7.32385,-3.128645 0.46665,-0.387283 14.40578,-6.101908 22.00823,-9.022715 11.42078,-4.387779 21.35529,-7.435834 26.81734,-8.227952 6.19363,-0.898215 10.6438,0.484632 15.65149,4.863551 3.20093,2.799018 3.38761,3.929285 0.91964,5.567929 -2.15072,1.427998 -2.60924,1.450821 -5.19432,0.258543 -1.99932,-0.922114 -2.41331,-1.018191 -4.32748,-1.0043 -1.92855,0.01399 -2.41278,0.137448 -5.44834,1.389062 -1.83241,0.755536 -3.53211,1.373703 -3.7771,1.373703 -0.95262,0 0.35513,-1.658001 2.98333,-3.782349 0.7346,-0.593771 0.63565,-1.161394 -0.3274,-1.878152 -0.65404,-0.486773 -1.10555,-0.555968 -3.57188,-0.547402 -7.60331,0.02641 -17.58696,4.051847 -26.9395,10.862096 -3.87772,2.823646 -4.99629,3.328326 -7.60246,3.43009 -1.18135,0.04613 -2.92181,-0.02294 -3.8677,-0.153459 z M 94.182469,39.997105 c 0,-0.522359 2.464908,-5.648878 4.064558,-8.453446 1.11242,-1.950326 1.06652,-2.107549 -1.13431,-3.885834 -1.630474,-1.317432 -1.831884,-1.719792 -0.86087,-1.719792 2.08736,0 6.966583,1.938871 8.315563,3.304384 1.12128,1.135026 0.93437,1.66256 -1.20558,3.402551 -1.04682,0.851157 -3.474713,2.964517 -5.395343,4.696353 -1.92063,1.731838 -3.557738,3.148795 -3.638028,3.148795 -0.0803,0 -0.14599,-0.221856 -0.14599,-0.493011 z M 72.751221,27.788796 c 0,-0.294609 1.00206,-1.469195 9.140556,-10.714305 3.07447,-3.4925 6.08591,-6.796484 6.69211,-7.3421871 1.66975,-1.5031116 2.19468,-1.3886785 4.854775,1.0583331 1.226004,1.127787 3.026005,2.776863 4.000005,3.664613 1.66179,1.514652 2.2007,2.454571 1.44016,2.511865 -0.1819,0.0137 -2.06065,0.04347 -4.174991,0.06615 l -3.844249,0.04123 -7.1884,4.575112 c -10.480186,6.6702 -10.919966,6.917443 -10.919966,6.139189 z M 178.12179,23.150165 c -0.53257,-0.223928 -1.35369,-1.108725 -2.35478,-2.537394 -2.83779,-4.04982 -4.66266,-5.693872 -7.56716,-6.817365 -0.53269,-0.206049 -0.72761,-0.464084 -0.72761,-0.963213 0,-0.567803 0.23909,-0.791226 1.43027,-1.336565 2.81876,-1.290474 7.48526,-1.8049021 9.34059,-1.029694 1.28651,0.537537 6.8633,6.05445 7.22353,7.145974 0.5097,1.544401 -0.5063,2.866456 -3.53421,4.598855 -2.03386,1.163655 -2.81771,1.356892 -3.81063,0.939402 z"
     style="fill:#ff2100;fill-opacity:1;stroke-width:0.26458335" />
  <path
     id="path58"
     d="m 2.6744171,129.42792 v -12.96458 h 22.7316759 22.73168 l 1.07804,1.22472 c 4.34306,4.93397 4.18387,12.55103 -0.36437,17.43507 l -1.10255,1.18396 H 31.297073 14.84525 v 3.04271 3.04271 H 8.7598343 2.6744171 Z m 39.0025259,-1.6078 c 0.38583,-0.45854 0.68497,-1.14296 0.68497,-1.5672 0,-0.42424 -0.29914,-1.10865 -0.68497,-1.5672 l -0.68498,-0.81405 H 27.918603 14.84525 v 2.38125 2.38125 h 13.073353 13.07336 z"
     style="fill:#ff2100;fill-opacity:1;stroke-width:0.26458335" />
  <path
     id="path60"
     d="m 53.51088,138.98841 0.0738,-3.50573 18.3224,-0.068 18.32239,-0.0679 v -0.92424 -0.92423 H 74.22793 58.22639 l -1.43388,-1.43388 c -2.72676,-2.72675 -3.83831,-6.23131 -2.95119,-9.30464 0.59129,-2.04845 1.22891,-3.09236 3.01612,-4.93804 l 1.47318,-1.52135 h 20.31505 20.315047 v 3.57187 3.57188 H 82.15968 65.35864 v 0.92604 0.92604 H 81.2868 97.214967 l 1.55357,1.59756 c 0.86136,0.88574 1.869203,2.27094 2.261943,3.10885 0.61371,1.30934 0.70784,1.84719 0.70445,4.02484 -0.004,2.24622 -0.0841,2.66679 -0.75835,3.95448 -0.41493,0.79251 -1.413563,2.13197 -2.219173,2.97656 l -1.46474,1.53563 H 75.36485 53.43703 Z m 49.94778,-5.09323 v -8.59896 h 6.08542 6.08541 v 8.59896 8.59896 h -6.08541 -6.08542 z m 13.75833,-4.49792 v -13.09687 h 6.08541 6.08542 v 6.48229 c 0,3.56526 0.0546,6.48229 0.12137,6.48229 0.0668,0 5.08856,-2.91877 11.15956,-6.48616 l 11.03818,-6.48615 7.7738,0.07 7.77379,0.07 -10.46668,6.45946 c -5.75668,3.55271 -10.46229,6.52927 -10.45691,6.61459 0.005,0.0853 4.69904,3.01262 10.43037,6.50512 l 10.42059,6.35 -7.77717,0.0701 -7.77717,0.0701 -11.05372,-6.43483 -11.05372,-6.43482 -0.0708,6.4309 -0.0708,6.4309 h -6.08079 -6.0808 z m 50.27083,9.525 v -3.57187 h 17.57756 c 10.78065,0 17.84,-0.0998 18.25625,-0.25804 0.62487,-0.23757 0.67868,-0.38443 0.67868,-1.85208 v -1.59405 l -16.86718,-4.1e-4 c -18.84136,-4.6e-4 -18.15223,0.066 -19.15985,-1.84754 -0.43142,-0.81928 -0.48546,-1.62199 -0.48546,-7.2099 v -6.28798 h 5.68854 5.68854 v 4.10104 4.10104 h 12.56081 12.56082 l 0.073,-4.0349 0.073,-4.03489 5.6224,-0.0714 5.62239,-0.0714 -0.002,11.05162 c -0.002,11.53722 -0.0926,12.63184 -1.14836,13.79769 -1.25976,1.39131 -0.60242,1.35497 -24.50613,1.35497 h -22.23349 z m 52.65208,3.26397 c -1.0948,-0.31488 -1.74636,-0.85468 -2.34219,-1.94043 -0.38239,-0.69679 -0.43594,-1.98066 -0.43594,-10.45166 v -9.65729 c 0.0247,-1.40271 1.26858,-2.70752 2.27094,-3.30242 0.90406,-0.52093 1.39894,-0.4035 21.74932,-0.47559 13.73482,-0.0487 21.19129,0.0194 21.85973,0.19934 1.26097,0.33954 2.27811,1.12252 2.87478,2.21296 0.41091,0.75097 0.45773,1.85141 0.45773,10.75841 0,5.5987 0.0819,7.7406 -0.14171,9.27687 -0.28736,1.69103 -1.50042,2.9097 -3.25661,3.63046 l -20.67876,-0.0297 c -13.73157,-0.0197 -21.76395,-0.0503 -22.35729,-0.22098 z m 34.51702,-7.88995 c 0.0682,-0.0217 0.0119,0.0377 0.23999,-0.0612 0.22804,-0.0989 0.49615,-0.38986 0.49214,-0.65075 -0.004,-0.26089 -0.0317,-4.24903 -0.0317,-4.24903 0,0 -0.1078,-3.37606 -0.0684,-3.85574 0.0394,-0.47968 -0.60592,-0.84794 -1.04892,-0.85061 -0.44301,-0.003 -11.8752,0.006 -11.8752,0.006 0,0 -11.71904,0.0197 -12.08552,0 -0.36649,-0.0197 -0.75124,0.2849 -0.75674,0.63507 -0.005,0.35018 -0.0627,3.99392 -0.0627,3.99392 -0.0425,2.7034 -0.0418,3.87777 0.0826,4.4324 0.12444,0.55463 0.41885,0.57311 0.87679,0.62465 7.23795,0.12517 42.18336,-0.19061 24.25319,0.0454 z M 100.54825,124.02086 c 0,-0.11936 0.69167,-1.81601 1.53705,-3.77031 l 1.53706,-3.55329 6.03381,-0.0712 c 4.79214,-0.0565 6.00589,-0.002 5.89819,0.26458 -0.0746,0.18468 -0.81667,1.91336 -1.64907,3.84151 l -1.51346,3.50573 h -5.92179 c -3.25699,0 -5.92179,-0.0977 -5.92179,-0.21703 z"
     style="fill:#b3b3b3;stroke-width:0.26458335" />
  <path
     id="path56"
     d="m 101.99437,120.15173 1.62234,-3.74259 6.24429,0.0375 c 4.06136,0.009 4.95966,-0.0151 5.88344,-0.008 -0.0755,0.18767 -0.93839,2.24301 -1.78127,4.20233 l -1.62952,3.74733 -2.41342,0.0177 c -1.34872,-0.0208 -3.19082,-0.0159 -4.32907,-0.0105 -2.45231,-0.0216 -5.30347,0.0417 -5.30347,-0.0455 0.67918,-1.56808 1.17387,-2.95983 1.70668,-4.19823 z"
     style="fill:#ff2100;fill-opacity:1;stroke-width:0.26838732" />
</svg>
