<?xml version="1.0" encoding="UTF-8" standalone="no"?>
<svg
   xmlns:dc="http://purl.org/dc/elements/1.1/"
   xmlns:cc="http://creativecommons.org/ns#"
   xmlns:rdf="http://www.w3.org/1999/02/22-rdf-syntax-ns#"
   xmlns:svg="http://www.w3.org/2000/svg"
   xmlns="http://www.w3.org/2000/svg"
   id="svg8"
   version="1.1"
   viewBox="0 0 154.99999 50"
   height="50mm"
   width="155mm">
  <defs
     id="defs2" />
  <metadata
     id="metadata5">
    <rdf:RDF>
      <cc:Work
         rdf:about="">
        <dc:format>image/svg+xml</dc:format>
        <dc:type
           rdf:resource="http://purl.org/dc/dcmitype/StillImage" />
        <dc:title></dc:title>
      </cc:Work>
    </rdf:RDF>
  </metadata>
  <g
     transform="translate(0,-246.99999)"
     id="layer1">
    <g
       style="fill:#808080"
       transform="matrix(0.26458333,0,0,0.26458333,2.9970144,250.12431)"
       id="g22">
      <path
         id="path10"
         d="M 33.98,108.929 33.912,67.342 h 5.384 v 49.797 H 33.912 L 5.249,75.215 5.384,117.139 H 0 V 67.342 h 5.652 z"
         style="fill:#808080" />
      <path
         id="path12"
         d="m 45.31,67.342 h 26.419 v 4.912 H 50.827 V 89.548 H 71.594 V 94.46 H 50.827 v 17.767 h 20.902 v 4.912 H 45.31 Z"
         style="fill:#808080" />
      <path
         id="path14"
         d="m 74.242,92.375 c 0,-15.341 11.911,-25.908 25.976,-25.908 14.602,0 25.975,11.171 25.975,25.773 0,14.604 -11.305,25.773 -25.975,25.773 -14.738,0 -25.976,-11.373 -25.976,-25.572 z m 5.585,-0.135 c 0,11.709 8.815,20.861 20.458,20.861 11.776,0 20.39,-9.486 20.39,-20.861 0,-11.373 -8.613,-20.861 -20.457,-20.861 -11.709,0 -20.391,9.286 -20.391,20.792 z"
         style="fill:#808080" />
      <path
         id="path16"
         d="m 172.16,80.262 c -1.548,-2.153 -3.433,-3.97 -5.586,-5.383 -3.23,-2.221 -7.133,-3.5 -11.574,-3.5 -10.902,0 -20.39,8.344 -20.39,20.792 0,12.652 9.556,20.996 20.457,20.996 5.249,0 9.892,-1.815 13.324,-4.508 3.5,-2.76 5.922,-6.527 6.73,-10.432 h -27.104 v -4.576 h 33.564 c -0.067,2.895 -0.74,6.527 -2.221,9.624 -4.307,9.354 -14.267,14.804 -24.293,14.804 -14.535,0 -26.042,-11.17 -26.042,-25.908 0,-14.938 11.709,-25.706 26.109,-25.706 10.094,0 19.448,5.653 23.351,13.795 h -6.325 z"
         style="fill:#808080" />
      <path
         id="path18"
         d="m 184.25,67.342 h 27.59 v 4.912 h -22.071 v 17.294 h 21.937 v 4.912 h -21.937 v 17.767 h 22.071 v 4.912 h -27.59 z"
         style="fill:#808080" />
      <path
         id="path20"
         d="m 214.061,92.375 c 0,-15.341 11.911,-25.908 25.975,-25.908 14.603,0 25.975,11.171 25.975,25.773 0,14.604 -11.305,25.773 -25.975,25.773 -14.737,0 -25.975,-11.373 -25.975,-25.572 z m 5.585,-0.135 c 0,11.709 8.815,20.861 20.457,20.861 11.777,0 20.39,-9.486 20.39,-20.861 0,-11.373 -8.613,-20.861 -20.457,-20.861 -11.709,0 -20.39,9.286 -20.39,20.792 z"
         style="fill:#808080" />
    </g>
    <g
       style="fill:#808080"
       transform="matrix(0.26458333,0,0,0.26458333,2.9970144,250.12431)"
       id="g32">
      <path
         id="path24"
         d="m 327.466,92.375 c 0,-15.341 11.91,-25.908 25.976,-25.908 14.603,0 25.976,11.171 25.976,25.773 0,14.604 -11.305,25.773 -25.976,25.773 -14.737,0 -25.976,-11.373 -25.976,-25.572 z m 5.584,-0.135 c 0,11.709 8.816,20.861 20.459,20.861 11.777,0 20.391,-9.486 20.391,-20.861 0,-11.373 -8.613,-20.861 -20.458,-20.861 -11.708,0 -20.392,9.286 -20.392,20.792 z"
         style="fill:#808080" />
      <path
         id="path26"
         d="m 435.001,103.748 c -3.229,7.672 -11.91,14.268 -22.879,14.268 -14.736,0 -25.976,-11.373 -25.976,-25.772 0,-14.2 10.97,-25.774 25.906,-25.774 12.313,0 20.054,8.21 22.946,14.535 h -5.99 c -1.684,-2.96 -7.334,-9.623 -16.956,-9.623 -11.642,0 -20.39,9.219 -20.39,20.793 0,11.777 8.813,20.929 20.39,20.929 10.433,0 15.745,-7.47 16.956,-9.354 z"
         style="fill:#808080" />
      <path
         id="path28"
         d="m 489.644,67.342 h 27.592 v 4.912 H 495.164 V 89.548 H 517.1 v 4.912 h -21.936 v 17.767 h 22.072 v 4.912 h -27.592 z"
         style="fill:#808080" />
      <path
         id="path30"
         d="m 545.228,72.254 h -16.047 v -4.912 h 37.746 v 4.912 h -16.113 v 44.885 h -5.586 z"
         style="fill:#808080" />
    </g>
    <path
       id="path34"
       d="m 59.68267,291.26993 c -0.54319,1.84732 -2.282031,3.16362 -4.371181,3.16362 -2.728913,0 -4.684977,-2.16164 -4.684977,-4.64846 0,-2.37861 1.847321,-4.62466 4.67307,-4.62466 2.572015,0.0124 4.033044,1.90791 4.383088,3.21258 h -1.89574 c -0.277548,-0.61595 -1.074473,-1.61793 -2.499518,-1.63037 -1.738842,0 -2.861734,1.46077 -2.861734,3.04271 0,1.63036 1.171311,3.06758 2.873904,3.06758 1.59385,0 2.318544,-1.25571 2.487348,-1.58194 z"
       style="fill:#f10000;stroke-width:0.26458332" />
    <path
       id="path36"
       d="m 64.500468,289.86896 c 0,-2.86094 2.197629,-4.70932 4.685241,-4.70932 2.704836,0 4.697148,2.10079 4.697148,4.63656 0,2.53577 -1.980406,4.63629 -4.709318,4.63629 -2.741084,0 -4.673071,-2.16111 -4.673071,-4.55162 z m 1.799166,-0.0722 c 0,1.63036 1.171311,3.05514 2.910417,3.05514 1.811338,0 2.873904,-1.57004 2.873904,-3.04271 0,-1.49701 -1.062566,-3.06758 -2.886075,-3.06758 -1.786996,0 -2.898246,1.47294 -2.898246,3.04324 z"
       style="fill:#f10000;stroke-width:0.26458332" />
    <path
       id="path38"
       d="m 79.195955,285.3295 h 1.798902 v 7.35357 h 2.934229 v 1.58194 h -4.733131 z"
       style="fill:#f10000;stroke-width:0.26458332" />
    <path
       id="path40"
       d="m 88.353184,289.86896 c 0,-2.86094 2.197629,-4.70932 4.684977,-4.70932 2.7051,0 4.697413,2.10079 4.697413,4.63656 0,2.53577 -1.980407,4.63629 -4.709319,4.63629 -2.740554,0 -4.673071,-2.16111 -4.673071,-4.55162 z m 1.799167,-0.0722 c 0,1.63036 1.171575,3.05514 2.909887,3.05514 1.811338,0 2.873904,-1.57004 2.873904,-3.04271 0,-1.49701 -1.062831,-3.06758 -2.88581,-3.06758 -1.786996,0 -2.897981,1.47294 -2.897981,3.04324 z"
       style="fill:#f10000;stroke-width:0.26458332" />
    <path
       id="path42"
       d="m 128.82597,281.11734 h 1.83409 l -6.84504,-6.60612 6.29259,-6.5696 h -1.60205 l -6.90695,7.14322 v -1.69228 -5.45068 h -1.45997 v 13.17546 h 1.45997 v -4.29366 l 1.34408,-1.40388 z"
       style="fill:#808080;stroke-width:0.26458332" />
    <path
       id="path44"
       d="m 105.07538,285.3295 c 1.00515,0.0254 1.89336,0.077 2.6924,0.74639 0.20585,0.16828 0.39952,0.38656 0.54107,0.60563 0.41249,0.63183 0.45085,1.33959 0.45085,1.58486 0,0.21828 -0.0257,0.82391 -0.36036,1.37821 -0.0905,0.14076 -0.20611,0.33444 -0.47678,0.57891 -0.29633,0.25823 -0.60537,0.39952 -0.72178,0.45085 -0.21908,0.0902 -0.43762,0.15478 -0.9144,0.25771 l 2.6281,3.49064 h -2.02274 l -2.52491,-3.43905 v 3.43905 h -1.8161 v -9.09399 z m -0.70855,4.31536 h 0.9017 c 0.10345,0 0.19288,0 0.29659,-0.013 0.19288,0 0.83715,-0.0259 1.26233,-0.54107 0.10266,-0.12912 0.28337,-0.39952 0.28337,-0.83767 0,-0.14155 -0.013,-0.48974 -0.245,-0.81068 -0.39979,-0.54161 -1.01812,-0.59267 -1.63672,-0.60616 h -0.86307 v 2.80855 z"
       style="fill:#f10000;stroke-width:0.26458332" />
    <path
       id="path46"
       d="m 83.111259,282.12434 c -2.867554,-5.70283 -5.727171,-11.39031 -8.588639,-17.08203 0.01587,-0.0111 0.02858,-0.022 0.04313,-0.0291 0.713581,-0.36513 1.427427,-0.73025 2.140744,-1.09485 1.008591,-0.51488 2.017447,-1.02738 3.024981,-1.5449 1.059127,-0.54398 2.172229,-0.87127 3.373702,-0.83238 0.817827,0.0265 1.567656,0.26432 2.22541,0.76597 0.580496,0.44291 0.991394,1.01812 1.306248,1.66846 0.298715,0.61701 0.511704,1.25915 0.523611,1.95183 0.01667,0.96203 -0.274109,1.83198 -0.789782,2.63975 -0.345546,0.54028 -0.739775,1.03743 -1.202266,1.47743 -0.318559,0.30322 -0.659077,0.58315 -0.989277,0.87286 -1.208882,-0.85751 -2.392098,-1.69597 -3.580077,-2.53814 0.225689,-0.82365 0.447939,-1.63989 0.671777,-2.45825 1.153847,0 2.29182,0 3.423708,0 0,-0.86704 0,-1.72693 0,-2.599 -1.767946,0.0169 -3.516313,0.0336 -5.264415,0.0511 -0.636852,1.79943 -1.270793,3.58907 -1.905,5.38215 2.046552,1.6928 4.086225,3.37979 6.127486,5.06862 0.811212,-0.3093 1.580885,-0.6903 2.305314,-1.16072 1.154377,-0.7501 2.116667,-1.69228 2.823369,-2.87894 0.656431,-1.10304 0.986367,-2.30452 1.004358,-3.58748 0.01111,-0.79507 -0.109537,-1.57242 -0.343429,-2.33442 -0.310356,-1.00965 -0.79031,-1.92352 -1.522677,-2.68949 -1.372923,-1.43748 -3.056731,-2.21006 -5.048514,-2.28097 -1.177396,-0.0418 -2.291292,0.2241 -3.342217,0.75194 -0.47334,0.23813 -0.93689,0.4953 -1.41314,0.72602 -1.060979,0.51303 -2.12725,1.01521 -3.191404,1.52083 -0.938477,0.44608 -1.877218,0.89058 -2.815696,1.33535 -0.317235,0.15055 -0.634735,0.30162 -0.9525,0.45243 3.187171,6.49844 6.370638,12.98919 9.552517,19.47995 0.806715,-0.34713 1.59676,-0.68738 2.402681,-1.03399 z"
       style="fill:none;stroke-width:0.26458332" />
    <path
       id="path48"
       d="m 83.111259,282.12434 c -0.806185,0.34687 -1.595966,0.68686 -2.404004,1.03399 -3.181614,-6.48996 -6.36561,-12.98125 -9.552516,-19.47968 0.317764,-0.15081 0.635,-0.30189 0.9525,-0.45244 0.938477,-0.44503 1.877218,-0.88953 2.815695,-1.33535 1.064154,-0.50562 2.130425,-1.0078 3.191404,-1.52083 0.47625,-0.23071 0.9398,-0.48789 1.41314,-0.72601 1.050925,-0.52811 2.164821,-0.79375 3.341952,-0.75195 1.992048,0.0709 3.675856,0.84349 5.048779,2.28098 0.732367,0.76596 1.212321,1.67957 1.522413,2.68948 0.234156,0.76174 0.354806,1.53935 0.343693,2.33442 -0.01799,1.28297 -0.347398,2.48444 -1.004358,3.58749 -0.707231,1.18639 -1.668992,2.12857 -2.823898,2.87893 -0.7239,0.4699 -1.493573,0.85116 -2.304785,1.16046 -2.041261,-1.68857 -4.080933,-3.37555 -6.127486,-5.06836 0.634207,-1.79308 1.268148,-3.58272 1.905,-5.38215 1.748102,-0.0172 3.497263,-0.0341 5.264415,-0.0511 0,0.87206 0,1.73196 0,2.599 -1.131888,0 -2.26986,0 -3.423708,0 -0.223838,0.81835 -0.446617,1.63459 -0.671777,2.45824 1.187979,0.84217 2.370931,1.68063 3.580077,2.53815 0.3302,-0.28972 0.670718,-0.56965 0.989277,-0.87286 0.462491,-0.44 0.856721,-0.93716 1.202002,-1.47743 0.515937,-0.80778 0.806979,-1.67773 0.790046,-2.63975 -0.0127,-0.69268 -0.225161,-1.33483 -0.523611,-1.95183 -0.314325,-0.65035 -0.725487,-1.22555 -1.306248,-1.66847 -0.657754,-0.50165 -1.407583,-0.73924 -2.22541,-0.76596 -1.201473,-0.0389 -2.314575,0.28813 -3.373702,0.83237 -1.007004,0.51753 -2.01639,1.03003 -3.024981,1.54491 -0.713582,0.36459 -1.427427,0.72972 -2.140744,1.09484 -0.01455,0.007 -0.02752,0.0183 -0.04313,0.0291 2.863056,5.69145 5.722673,11.37893 8.589962,17.08176 z"
       style="fill:#f10000;stroke-width:0.26458332" />
    <path
       id="path50"
       d="m 85.133999,257.14265 c -0.572029,-0.11774 -1.128184,-0.23257 -1.699419,-0.35031 0.332581,-2.22118 0.665163,-4.44183 0.998538,-6.66803 1.041135,0.15187 2.072216,0.30295 3.119702,0.45614 -0.808302,2.19287 -1.612107,4.3733 -2.418821,6.5622 z"
       style="fill:#f10000;stroke-width:0.26458332" />
    <path
       id="path52"
       d="m 94.420874,255.33105 c 0.55245,0.89455 1.097227,1.778 1.651264,2.67546 -1.804193,1.11707 -3.607593,2.23309 -5.41655,3.35254 -0.379412,-0.56621 -0.751416,-1.1221 -1.131887,-1.69095 1.631156,-1.44437 3.258873,-2.88608 4.897173,-4.33705 z"
       style="fill:#07b8f9;stroke-width:0.26458332" />
    <path
       id="path54"
       d="m 90.063186,251.83934 c 0.798248,0.55166 1.581944,1.09379 2.369079,1.63777 -1.422664,1.69651 -2.841095,3.38799 -4.269316,5.09032 -0.499534,-0.30824 -0.994569,-0.61357 -1.503627,-0.9279 1.130035,-1.92484 2.261923,-3.85418 3.403864,-5.80019 z"
       style="fill:#069211;stroke-width:0.26458332" />
    <g
       style="fill:#808080"
       transform="matrix(0.26458333,0,0,0.26458333,2.9970144,250.12431)"
       id="g60">
      <path
         style="fill:#808080"
         id="path56"
         d="m 412.074,158.443 h -1.98 v -1.621 h 5.791 v 1.621 h -1.967 v 7.535 h -1.844 z" />
      <path
         style="fill:#808080"
         id="path58"
         d="m 416.851,165.979 v -9.156 h 2.486 l 2.354,6.57 2.313,-6.57 h 2.5 v 9.156 h -1.709 l 0.051,-7.338 -2.563,7.338 h -1.213 l -2.574,-7.338 0.051,7.338 z" />
    </g>
  </g>
</svg>
