<?xml version="1.0" encoding="UTF-8" standalone="no"?>
<svg
   xmlns:dc="http://purl.org/dc/elements/1.1/"
   xmlns:cc="http://creativecommons.org/ns#"
   xmlns:rdf="http://www.w3.org/1999/02/22-rdf-syntax-ns#"
   xmlns:svg="http://www.w3.org/2000/svg"
   xmlns="http://www.w3.org/2000/svg"
   id="svg8"
   version="1.1"
   viewBox="0 0 149 24"
   height="24mm"
   width="149mm">
  <defs
     id="defs2" />
  <metadata
     id="metadata5">
    <rdf:RDF>
      <cc:Work
         rdf:about="">
        <dc:format>image/svg+xml</dc:format>
        <dc:type
           rdf:resource="http://purl.org/dc/dcmitype/StillImage" />
        <dc:title></dc:title>
      </cc:Work>
    </rdf:RDF>
  </metadata>
  <g
     transform="translate(0,-273)"
     id="layer1">
    <rect
       id="rect32"
       height="2.243402"
       width="7.1680913"
       y="12.649231"
       x="15.316257"
       style="fill:none;stroke-width:0.26458332" />
    <rect
       id="rect34"
       height="1.4152563"
       width="6.9495459"
       y="9.9573593"
       x="17.07653"
       style="fill:none;stroke-width:0.26458332" />
    <g
       transform="translate(-0.52379473,272.61491)"
       id="g193">
      <g
         id="g14"
         transform="matrix(0.26458333,0,0,0.26458333,0.68294665,-4.6608696)"
         style="fill:#b3b3b3">
        <g
           id="g12"
           style="fill:#b3b3b3">
          <path
             id="path10"
             d="m 288.25,73.605 6.785,-15.589 -8.479,-0.067 -4.37,10.112 -6.916,-6.197 c 5.153,-5.023 5.807,-6.196 6.067,-11.025 0.261,-4.825 -4.11,-10.762 -12.264,-10.762 -8.154,0 -11.415,6.719 -11.415,11.156 0,4.435 2.414,7.174 5.415,10.044 -5.022,3.328 -9.002,6.393 -9.002,16.111 0,7.438 6.589,13.961 15.981,13.961 9.393,0 13.438,-7.504 14.676,-10.176 3.132,2.868 10.242,9.326 10.242,9.326 l 5.154,-5.673 z M 269.466,47.773 c 1.978,0 4.044,1.131 4.044,3.589 0,2.869 -3.979,5.217 -3.979,5.217 -3.282,-2.718 -4.109,-3.195 -4.109,-5.544 -0.001,-2.349 2.238,-3.262 4.044,-3.262 z m 0.521,35.878 c -3.131,0 -8.349,-0.913 -8.349,-6.72 0,-5.805 2.217,-7.076 7.371,-10.438 0,0 8.153,7.373 9.915,8.872 -2.478,6.98 -5.805,8.286 -8.937,8.286 z"
             style="fill:#b3b3b3" />
        </g>
      </g>
      <polygon
         points="195.595,90.125 187.071,90.125 187.071,54.988 163.414,90.299 154.978,90.299 154.978,54.815 131.496,90.125 121.232,90.125 155.065,39.247 163.414,39.247 163.414,74.382 187.071,39.333 195.595,39.333 "
         id="polygon16"
         transform="matrix(0.26458333,0,0,0.26458333,0.68294665,-4.6608696)"
         style="fill:#b3b3b3" />
      <polygon
         points="211.423,69.6 211.423,81.602 228.992,81.602 228.992,90.212 202.901,90.212 202.901,39.333 229.08,39.333 229.08,47.944 211.512,47.944 211.512,60.903 229.08,60.903 229.08,69.6 "
         id="polygon18"
         transform="matrix(0.26458333,0,0,0.26458333,0.68294665,-4.6608696)"
         style="fill:#b3b3b3" />
      <g
         id="g24"
         transform="matrix(0.26458333,0,0,0.26458333,0.68294665,-4.6608696)"
         style="fill:#b3b3b3">
        <g
           id="g22"
           style="fill:#b3b3b3">
          <path
             d="M 110.1,39.333 76.267,90.387 h 10.438 l 7.217,-11.135 h 16.352 v 11.135 h 8.436 V 39.333 Z m 0.087,31.137 h -10.35 l 10.35,-15.569 z"
             id="path20"
             style="fill:#b3b3b3" />
        </g>
      </g>
      <g
         id="g30"
         transform="matrix(0.26458333,0,0,0.26458333,0.68294665,-4.6608696)"
         style="fill:#b3b3b3">
        <g
           id="g28"
           style="fill:#b3b3b3">
          <path
             d="m 81.937,65.474 h -26.63 v 8.3 l 17.268,0.078 c -2.997,6.684 -9.709,11.339 -17.507,11.339 -10.592,0 -19.178,-8.587 -19.178,-19.18 0,-10.591 8.586,-19.177 19.178,-19.177 6.578,0 12.38,3.312 15.835,8.356 l 8.769,-0.008 C 75.507,45.733 66.058,39.136 55.068,39.136 c -14.842,0 -26.875,12.033 -26.875,26.875 0,14.844 12.033,26.875 26.875,26.875 14.842,0 26.875,-12.031 26.875,-26.875 0,-0.179 -0.003,-0.359 -0.006,-0.537 z"
             id="path26"
             style="fill:#b3b3b3" />
        </g>
      </g>
      <g
         id="g56"
         transform="matrix(0.26458333,0,0,0.26458333,0.68294665,-4.6608696)"
         style="fill:#b3b3b3">
        <g
           id="g42"
           style="fill:#b3b3b3">
          <g
             id="g40"
             style="fill:#b3b3b3">
            <path
               id="path38"
               d="m 401.653,37.884 -33.831,51.053 h 10.436 l 7.219,-11.135 h 16.35 v 11.135 h 8.437 V 37.884 Z m 0.087,31.135 H 391.392 L 401.74,53.452 Z"
               style="fill:#b3b3b3" />
          </g>
        </g>
        <g
           id="g48"
           style="fill:#b3b3b3">
          <g
             id="g46"
             style="fill:#b3b3b3">
            <path
               id="path44"
               d="m 480.065,75.239 c -3.382,3.919 -8.384,6.397 -13.965,6.397 -10.184,0 -18.438,-8.254 -18.438,-18.438 0,-10.183 8.255,-18.439 18.438,-18.439 5.364,0 10.19,2.291 13.56,5.945 l 9.868,-0.003 c -4.483,-8.45 -13.371,-14.203 -23.602,-14.203 -14.747,0 -26.7,11.953 -26.7,26.7 0,14.748 11.953,26.701 26.7,26.701 10.416,0 19.44,-5.966 23.842,-14.664 z"
               style="fill:#b3b3b3" />
          </g>
        </g>
        <polygon
           id="polygon50"
           points="352.949,88.942 361.82,88.942 395.391,38.149 384.868,38.149 361.733,73.288 361.733,38.236 353.036,38.236 329.726,73.374 329.726,38.063 320.943,38.063 320.943,89.03 329.726,89.03 352.949,54.241 "
           style="fill:#b3b3b3" />
        <polygon
           id="polygon52"
           points="422.96,46.674 413.221,46.674 413.309,37.978 441.485,37.978 441.485,46.586 431.659,46.586 431.659,88.769 422.96,88.769 "
           style="fill:#b3b3b3" />
        <polygon
           id="polygon54"
           points="525.33,88.857 525.33,38.149 516.72,38.149 516.72,58.676 500.802,58.676 500.802,38.149 492.192,38.063 492.192,89.032 500.802,89.032 500.802,67.375 516.544,67.375 516.544,88.857 "
           style="fill:#b3b3b3" />
      </g>
      <g
         id="Layer_3"
         transform="matrix(0.26458333,0,0,0.26458333,0.68294665,-4.6608696)"
         style="fill:#b3b3b3">
        <g
           id="g63"
           style="fill:#b3b3b3">
          <g
             id="g61"
             style="fill:#b3b3b3">
            <path
               d="M 551.888,21.961 H 11.522 c -4.734,0 -8.573,3.838 -8.573,8.573 V 96.88 c 0,4.735 3.838,8.573 8.573,8.573 h 540.366 c 4.734,0 8.572,-3.838 8.572,-8.573 V 30.534 c 0,-4.734 -3.837,-8.573 -8.572,-8.573 z m 7.039,74.693 c 0,4.109 -3.331,7.441 -7.44,7.441 H 11.923 c -4.109,0 -7.441,-3.332 -7.441,-7.441 V 30.761 c 0,-4.109 3.332,-7.441 7.441,-7.441 h 539.564 c 4.109,0 7.44,3.332 7.44,7.441 z"
               id="path59"
               style="fill:#b3b3b3" />
          </g>
        </g>
      </g>
    </g>
  </g>
</svg>
